<svg width="727" height="793" viewBox="0 0 727 793" fill="none" xmlns="http://www.w3.org/2000/svg">
<path d="M63.4756 126.907C98.5322 126.907 126.951 98.4978 126.951 63.4534C126.951 28.409 98.5322 0 63.4756 0C28.419 0 0 28.409 0 63.4534C0 98.4978 28.419 126.907 63.4756 126.907Z" transform="translate(222.052 666.093)" fill="#72BEF0"/>
<path d="M63.4756 126.907C98.5322 126.907 126.951 98.4978 126.951 63.4534C126.951 28.409 98.5322 0 63.4756 0C28.419 0 0 28.409 0 63.4534C0 98.4978 28.419 126.907 63.4756 126.907Z" transform="translate(443.909 666.093)" fill="#72BEF0"/>
<path d="M108.323 330.344C120.704 317.967 126.867 301.782 126.923 285.54C133.926 237.768 150.734 210.998 181.715 180.027C211.744 150.009 236.339 132.871 283.567 126.823C300.487 127.383 317.574 121.166 330.46 108.285C355.222 83.5312 355.222 43.3197 330.46 18.5656C305.697 -6.18853 265.471 -6.18853 240.709 18.5656C230.848 28.4224 224.91 40.6875 222.893 53.4566C222.893 53.0646 222.837 52.6725 222.837 52.3365C216.282 104.589 204.517 130.407 168.269 166.642C132.077 202.821 107.931 214.302 55.212 222.423C55.5481 222.423 55.8843 222.479 56.2204 222.479C42.4945 224.047 29.1047 230.096 18.5721 240.625C-6.19069 265.379 -6.19069 305.59 18.5721 330.344C43.3348 355.154 83.5603 355.154 108.323 330.344Z" transform="translate(222.081)" fill="#72BEF0"/>
<path d="M108.323 108.285C133.086 83.5312 133.086 43.3197 108.323 18.5656C83.5603 -6.18853 43.3348 -6.18853 18.5721 18.5656C-6.19069 43.3197 -6.19069 83.5312 18.5721 108.285C43.3348 133.095 83.5043 133.095 108.323 108.285Z" transform="translate(0 222.059)" fill="#72BEF0"/>
<path d="M108.323 18.5656C83.5603 -6.18853 43.3348 -6.18853 18.5721 18.5656C-6.19069 43.3197 -6.19069 83.5311 18.5721 108.285C43.3348 133.039 83.5603 133.039 108.323 108.285C133.142 83.5311 133.142 43.3757 108.323 18.5656Z" transform="translate(444.161 222.059)" fill="#72BEF0"/>
<path d="M108.323 108.341C108.771 107.893 109.219 107.445 109.612 106.941C130.173 87.8435 154.991 74.0103 174.544 74.0103C193.704 74.0103 217.907 87.2835 238.188 105.709C238.972 106.605 239.812 107.445 240.653 108.285C265.415 133.039 305.641 133.039 330.404 108.285C355.166 83.5312 355.166 43.3197 330.404 18.5656C305.641 -6.18853 265.415 -6.18853 240.653 18.5656C239.756 19.4617 238.86 20.4137 238.019 21.3658C217.851 39.7354 194.713 52.8965 174.544 52.8965C153.983 52.8965 130.285 39.1754 109.892 20.2457C109.388 19.6857 108.827 19.1256 108.323 18.5656C83.5603 -6.18853 43.3348 -6.18853 18.5721 18.5656C-6.19069 43.3197 -6.19069 83.5312 18.5721 108.285C43.3348 133.095 83.5043 133.095 108.323 108.341Z" transform="translate(0 444.062)" fill="#72BEF0"/>
<path d="M63.4756 126.907C98.5322 126.907 126.951 98.4978 126.951 63.4534C126.951 28.4091 98.5322 0 63.4756 0C28.419 0 0 28.4091 0 63.4534C0 98.4978 28.419 126.907 63.4756 126.907Z" transform="translate(444.133 444.09)" fill="#72BEF0"/>
<path d="M38.1526 0V16.1854H30.7013C21.0091 16.1854 17.1995 20.4978 17.1995 30.8586V63.8455H0V0.336032H10.9808L14.0061 8.1207C18.5441 2.52022 24.2585 0 32.4381 0H38.1526Z" transform="translate(46.6963 278.316)" fill="white"/>
<path d="M33.7267 67.1497C14.6223 67.1497 0 52.4205 0 33.3788C0 14.3372 14.5103 0 33.8387 0C50.3099 0 63.0834 10.4169 66.1647 26.0422H49.0773C46.2761 19.8257 40.5616 16.1294 33.7267 16.1294C24.4266 16.1294 17.4236 23.578 17.4236 33.4349C17.4236 43.2917 24.5387 50.9644 33.7267 50.9644C40.6737 50.9644 46.1641 47.1 49.0773 40.3235H66.3889C63.3635 56.3408 50.3659 67.1497 33.7267 67.1497Z" transform="translate(158.353 402.254)" fill="white"/>
<path d="M38.1526 0V16.1854H30.7013C21.0091 16.1854 17.1994 20.4977 17.1994 30.8586V63.8455H0V0.336015H11.0368L14.0621 8.1207C18.6001 2.52022 24.3146 0 32.4941 0H38.1526Z" transform="translate(392.647 403.767)" fill="white"/>
<path d="M46.4442 44.4118C43.811 48.9482 38.9369 51.8044 32.9423 51.8044C29.1887 51.8044 25.9953 50.8524 23.4182 48.9482C20.3368 46.708 18.2079 43.1237 17.4236 38.3633H30.5333C32.5501 34.611 34.1188 30.6346 35.2953 26.6583H17.8718C19.8886 19.1537 25.323 14.6733 32.9423 14.6733C34.567 14.6733 36.1357 14.8973 37.5363 15.2333C38.0405 10.2489 37.9845 5.20845 37.3122 0.280024C35.9116 0.11201 34.399 0 32.9423 0C14.0621 0 0 14.4493 0 33.5469C0 44.3558 4.594 53.7086 11.9892 59.8131C17.5917 64.4055 24.8748 67.1498 32.9423 67.1498C47.6767 67.1498 59.834 58.301 64.484 44.4678H46.4442V44.4118Z" transform="translate(88.9947 276.86)" fill="white"/>
<path d="M4.594 81.487C8.45968 77.6227 12.6615 74.3744 17.1995 71.7422V53.0366C17.1995 42.7317 22.914 36.4591 31.4297 36.4591C39.161 36.4591 42.5225 41.1635 42.5225 50.6843V63.2854C48.237 62.6694 54.0075 62.7814 59.722 63.7335V63.2854V47.8281C59.722 31.6427 50.8141 21.3938 36.4158 21.3938C28.8525 21.3938 22.0176 24.1941 17.1995 28.7865V0H0V86.0234C0.672292 85.4633 1.34458 84.8473 1.96085 84.2312C2.80122 83.3352 3.69761 82.3831 4.594 81.487Z" transform="translate(236.059 381.197)" fill="white"/>
<path d="M56.0804 1.73614L54.2316 7.78465C48.7412 2.91223 41.514 0 33.3345 0C14.2302 0 0 14.2812 0 33.4349C0 37.5792 0.672306 41.4996 1.90484 45.0839C2.07291 45.5879 2.24099 46.0359 2.46509 46.54C9.97235 49.6202 17.0314 54.2127 23.1381 60.3172C25.1549 62.3333 27.0598 64.5175 28.7405 66.7577C29.917 66.9257 31.0935 66.9817 32.3261 67.0378C32.6622 67.0378 32.9983 67.0378 33.3345 67.0378C41.346 67.0378 48.4611 64.2375 53.8954 59.4771L55.3521 65.1336H68.7979V1.73614H56.0804ZM34.7351 50.9083C24.7628 50.9083 17.4236 43.4597 17.4236 33.4909C17.4236 23.522 24.7628 16.0734 34.7351 16.0734C44.7074 16.0734 52.0466 23.522 52.0466 33.4909C52.0466 43.4597 44.7635 50.9083 34.7351 50.9083Z" transform="translate(307.266 402.254)" fill="white"/>
<path d="M0 0.382853V0.830919V23.5129H17.1995V0.830919C11.485 -0.121163 5.71448 -0.2332 0 0.382853Z" transform="translate(278.581 444.099)" fill="white"/>
<path d="M66.613 42.0596V1.79216H55.4641L52.7189 8.1207C47.2285 3.08026 39.8894 0 31.5977 0C13.838 0 0 14.1692 0 31.9227C0 47.5481 10.5886 60.1492 25.0429 63.0614C25.8272 62.1653 26.6676 61.2692 27.564 60.3732C38.4887 49.4522 52.3828 43.3477 66.613 42.0596ZM17.4236 31.9227C17.4236 22.5139 24.2585 15.5693 33.6146 15.5693C43.0827 15.5693 49.8057 22.5139 49.8057 31.9227C49.8057 41.4436 42.9707 48.3321 33.6146 48.3321C24.2025 48.3321 17.4236 41.3875 17.4236 31.9227Z" transform="translate(435.169 402.31)" fill="white"/>
<path d="M32.9423 0C14.0621 0 0 14.4493 0 33.5469C0 36.4591 0.336153 39.2594 0.952421 41.9476C0.952421 42.0596 1.00843 42.1716 1.00843 42.2836C14.6784 43.9078 27.8441 49.9563 38.3207 60.4292C40.0014 62.1093 41.5701 63.8455 43.0267 65.6936C43.9231 65.4136 44.7635 65.1336 45.6599 64.7976C54.4557 61.2693 61.2346 54.1006 64.4841 44.5238H46.4442C43.8111 49.0602 38.9369 51.9165 32.9423 51.9165C32.214 51.9165 31.5417 51.8604 30.9255 51.8044C26.7236 51.3564 23.2501 49.6203 20.8971 46.596C19.2163 44.4678 18.0399 41.7796 17.4796 38.4753H65.5485C65.7726 36.7952 65.8847 35.115 65.8847 33.4349C65.8286 15.0093 52.4388 0 32.9423 0ZM17.8157 26.6023C19.8326 19.0976 25.267 14.6173 32.8863 14.6173C40.6177 14.6173 46.1641 18.8176 48.5731 26.6023H17.8157Z" transform="translate(514.164 402.31)" fill="white"/>
<path d="M21.4013 47.9401C41.5141 47.9401 53.8394 35.7871 53.8394 15.8494V0.392006V0C39.6092 1.28811 25.7152 7.39261 14.8465 18.3135C14.0061 19.1536 13.1657 20.0497 12.3254 21.0018C13.2778 21.2258 14.2862 21.3378 15.2947 21.4498C16.4712 21.5618 17.6477 21.6178 18.8802 21.6178C25.7712 21.6178 31.9899 19.5457 37.0321 15.9614V18.3135C37.0321 27.6103 29.805 33.2108 21.1212 33.2108C16.8633 33.2108 12.4374 31.8667 9.41212 29.2905C8.6838 28.6744 8.01151 27.9464 7.45127 27.1623C4.3139 31.7547 1.79278 36.6271 0 41.7236C0.89639 42.3396 1.79279 42.9557 2.74521 43.4597C7.84342 46.372 14.1742 47.9401 21.4013 47.9401Z" transform="translate(447.943 444.37)" fill="white"/>
<path d="M47.5087 0H0C1.40061 5.71249 3.64158 11.313 6.72292 16.5214H47.5647V0H47.5087Z" transform="translate(223.957 300.886)" fill="white"/>
<path d="M18.5721 18.4816C-6.19069 43.2357 -6.19069 83.4472 18.5721 108.201C30.2812 119.906 45.3517 126.067 60.7024 126.739V0C45.3517 0.616053 30.2251 6.77658 18.5721 18.4816Z" transform="translate(666.298 666.261)" fill="#72BEF0"/>
<path d="M13.1097 24.6981C-4.3699 47.212 -4.3699 79.4708 13.1097 101.985C25.323 117.722 42.8586 125.955 60.6744 126.683V0C42.8586 0.728062 25.323 8.96077 13.1097 24.6981Z" transform="translate(666.27 0.140076)" fill="#72BEF0"/>
<path d="M13.1097 24.6981C-4.3699 47.2121 -4.3699 79.4708 13.1097 101.985C25.323 117.722 42.8586 125.955 60.6744 126.683V0C42.8586 0.784067 25.323 9.01679 13.1097 24.6981Z" transform="translate(666.27 444.202)" fill="#72BEF0"/>
<path d="M13.1097 24.6981C-4.3699 47.2121 -4.3699 79.5268 13.1097 101.985C25.323 117.722 42.8586 125.899 60.6744 126.683V0C42.8586 0.784067 25.323 9.01678 13.1097 24.6981Z" transform="translate(666.27 222.143)" fill="#72BEF0"/>
</svg>
