<svg width="16" height="17" viewBox="0 0 16 17" fill="none" xmlns="http://www.w3.org/2000/svg">
<path d="M15.875 6.0625V18.4375C15.875 18.9062 15.7109 19.3047 15.3828 19.6328C15.0547 19.9609 14.6562 20.125 14.1875 20.125H11.1992V13.9023H13.3086L13.625 11.5117H11.1992V10C11.1992 9.625 11.2695 9.34375 11.4102 9.15625C11.5977 8.94531 11.9141 8.83984 12.3594 8.83984H13.625V6.73047C13.1328 6.66016 12.5234 6.625 11.7969 6.625C10.8594 6.625 10.1094 6.90625 9.54688 7.46875C9.00781 8.00781 8.73828 8.76953 8.73828 9.75391V11.5117H6.59375V13.9023H8.73828V20.125H1.8125C1.34375 20.125 0.945312 19.9609 0.617188 19.6328C0.289063 19.3047 0.125 18.9062 0.125 18.4375V6.0625C0.125 5.59375 0.289063 5.19531 0.617188 4.86719C0.945312 4.53906 1.34375 4.375 1.8125 4.375H14.1875C14.6562 4.375 15.0547 4.53906 15.3828 4.86719C15.7109 5.19531 15.875 5.59375 15.875 6.0625Z" transform="translate(0 -4)" fill="white"/>
</svg>
