<svg width="16" height="17" viewBox="0 0 16 17" fill="none" xmlns="http://www.w3.org/2000/svg">
<path d="M14.75 4.375H1.25C0.945312 4.375 0.675781 4.49219 0.441406 4.72656C0.230469 4.9375 0.125 5.19531 0.125 5.5V19C0.125 19.3047 0.230469 19.5625 0.441406 19.7734C0.675781 20.0078 0.945312 20.125 1.25 20.125H14.75C15.0547 20.125 15.3125 20.0078 15.5234 19.7734C15.7578 19.5625 15.875 19.3047 15.875 19V5.5C15.875 5.19531 15.7578 4.9375 15.5234 4.72656C15.3125 4.49219 15.0547 4.375 14.75 4.375ZM4.87109 17.875H2.55078V10.3516H4.90625V17.875H4.87109ZM3.71094 9.33203C3.33594 9.33203 3.01953 9.20312 2.76172 8.94531C2.50391 8.66406 2.375 8.34766 2.375 7.99609C2.375 7.62109 2.50391 7.30469 2.76172 7.04688C3.01953 6.76562 3.33594 6.625 3.71094 6.625C4.08594 6.625 4.40234 6.76562 4.66016 7.04688C4.94141 7.30469 5.08203 7.62109 5.08203 7.99609C5.08203 8.34766 4.94141 8.66406 4.66016 8.94531C4.40234 9.20312 4.08594 9.33203 3.71094 9.33203ZM13.625 17.875H11.3047V14.2188C11.3047 13.6094 11.2461 13.1641 11.1289 12.8828C10.9648 12.4375 10.6133 12.2148 10.0742 12.2148C9.53516 12.2148 9.14844 12.4141 8.91406 12.8125C8.75 13.1172 8.66797 13.5625 8.66797 14.1484V17.875H6.34766V10.3516H8.59766V11.3711H8.63281C8.79688 11.043 9.05469 10.7734 9.40625 10.5625C9.82812 10.3047 10.3086 10.1758 10.8477 10.1758C11.9258 10.1758 12.6875 10.5156 13.1328 11.1953C13.4609 11.7344 13.625 12.5898 13.625 13.7617V17.875Z" transform="translate(0 -4)" fill="white"/>
</svg>
