<svg width="141" height="40" viewBox="0 0 141 40" fill="none" xmlns="http://www.w3.org/2000/svg">
<path d="M13.8166 6.82103L14.7665 3.45261L15.8891 0.252609H20.6386L16.2346 12.2105H12.0896L10.3625 7.74735L8.6354 12.2105H4.40406L0 0.252609H4.66312L5.78573 3.53682L6.73562 6.90524L8.89447 0.33682H11.6578L13.8166 6.82103Z" transform="translate(77.3735 0.21051)" fill="white"/>
<path d="M33.5053 5.64211C33.5053 6.23158 33.419 6.82105 33.3326 7.41053H24.8699C25.2154 8.42105 26.597 8.92632 27.6333 8.92632C28.9286 8.92632 29.9648 8.58947 30.742 8L32.9872 10.4421C31.5192 11.7895 29.5331 12.3789 27.4606 12.3789C23.661 12.3789 20.3795 10.5263 20.3795 6.23158C20.3795 1.93684 23.8337 0 27.1151 0C30.742 0 33.5053 2.02105 33.5053 5.64211ZM27.0288 3.2C25.9925 3.2 24.8699 3.70526 24.7836 4.63158H29.1876C29.1876 3.62105 28.1514 3.2 27.0288 3.2Z" transform="translate(77.3735 0.21051)" fill="white"/>
<path d="M81.6912 39.7895V22.9474H85.7498L85.9225 24.2105C86.9588 23.0316 88.5132 22.6105 89.8948 22.6947C93.4353 22.8632 95.4215 25.0526 95.4215 28.8421C95.4215 32.4632 93.0899 34.9895 89.5494 34.9895C87.995 34.9895 86.8724 34.4842 86.1816 33.7263V39.7053H81.6912V39.7895ZM90.9311 28.9263C90.9311 27.2421 89.8948 26.3158 88.5132 26.3158C86.9588 26.3158 86.0953 27.579 86.0953 28.7579C86.0953 30.1895 86.9588 31.5369 88.5132 31.5369C89.8948 31.5369 90.9311 30.5263 90.9311 28.9263Z" fill="#30C0F3"/>
<path d="M101.725 34.8211H97.2348V17.979H101.725V34.8211Z" fill="#30C0F3"/>
<path d="M117.442 22.9474V34.8211H113.297L113.124 33.5579C112.088 34.7368 110.533 35.1579 109.152 35.0737C105.525 34.9053 103.625 32.379 103.625 28.9263C103.625 25.3895 105.957 22.6947 109.497 22.6947C111.224 22.6947 112.433 23.2842 113.038 24.2105L113.297 22.9474H117.442ZM107.943 28.9263C107.943 30.6105 108.979 31.5368 110.361 31.5368C111.915 31.5368 112.865 30.3579 112.865 28.9263C112.865 27.3263 111.915 26.3158 110.361 26.3158C109.065 26.2316 107.943 27.2421 107.943 28.9263Z" fill="#30C0F3"/>
<path d="M126.509 39.7895H121.76L124.178 34.2316L119.342 22.8632H124.178L125.214 25.7263L126.509 29.8526L127.977 25.7263L129.1 22.9474H133.936L126.509 39.7895Z" fill="#30C0F3"/>
<path d="M135.576 32.5474C135.576 31.3684 136.44 30.1895 138.167 30.1895C139.894 30.1895 140.757 31.3684 140.757 32.5474C140.757 33.7263 139.894 34.9053 138.167 34.9053C136.44 34.9053 135.576 33.7263 135.576 32.5474ZM135.835 17.979H140.585L140.498 29.2632H135.921L135.835 17.979Z" fill="#30C0F3"/>
<path d="M64.5928 27.5789C63.4702 26.4842 62.0021 25.8105 60.4478 25.5579C54.403 24.8 51.3806 23.4526 47.2356 19.3263C43.0906 15.2842 41.7089 12.5053 40.759 6.61053C40.5863 5.01053 39.8955 3.41053 38.6865 2.14737C35.7505 -0.715789 31.0874 -0.715789 28.1513 2.14737C25.2153 5.01053 25.2153 9.55789 28.1513 12.4211C29.3603 13.6 30.9147 14.2737 32.5554 14.4421H32.469C38.6002 15.2 41.8816 17.0526 45.6812 20.8421C49.4808 24.5474 51.5533 27.5789 52.0714 33.8947V33.8105C52.3305 35.2421 53.0213 36.6737 54.1439 37.8526C57.08 40.7158 61.7431 40.7158 64.6791 37.8526C67.5288 34.9895 67.5288 30.4421 64.5928 27.5789Z" fill="#30C0F3"/>
<path d="M28.1513 27.5789C25.2153 30.4421 25.2153 34.9895 28.1513 37.8526C31.0874 40.7158 35.7505 40.7158 38.6865 37.8526C41.6226 34.9895 41.6226 30.4421 38.6865 27.5789C35.7505 24.7158 31.0874 24.7158 28.1513 27.5789Z" fill="#30C0F3"/>
<path d="M7.42645 39.9579C11.528 39.9579 14.8529 36.7155 14.8529 32.7158C14.8529 28.7161 11.528 25.4737 7.42645 25.4737C3.32494 25.4737 0 28.7161 0 32.7158C0 36.7155 3.32494 39.9579 7.42645 39.9579Z" fill="#30C0F3"/>
</svg>
