<svg width="20" height="16" viewBox="0 0 20 16" version="1.1" xmlns="http://www.w3.org/2000/svg" xmlns:xlink="http://www.w3.org/1999/xlink">
<g>
<path d="M 10.0416 15.9994C 10.1118 15.9994 10.155 16.0007 10.1984 15.9994C 10.8514 15.9838 11.5047 15.9758 12.1574 15.9501C 12.718 15.9275 13.2792 15.9022 13.8373 15.8469C 14.517 15.7789 15.195 15.6914 15.8705 15.5867C 16.6033 15.4732 17.3097 15.265 17.9903 14.9582C 18.6223 14.6733 19.0455 14.2193 19.2917 13.5715C 19.6225 12.7007 19.7907 11.7964 19.8799 10.8765C 19.9394 10.2583 19.98 9.63708 19.9937 9.01675C 20.0098 8.27173 19.991 7.52565 19.9819 6.77978C 19.9714 5.92673 19.8997 5.0781 19.7648 4.23581C 19.655 3.5545 19.4899 2.88902 19.2181 2.25097C 18.9993 1.7372 18.6445 1.36395 18.1448 1.11244C 17.3355 0.704378 16.4719 0.481988 15.5831 0.358767C 14.8513 0.257278 14.1158 0.174568 13.3796 0.117177C 12.602 0.0561995 11.8218 0.00914748 11.042 0.00218463C 9.96675 -0.00773216 8.89092 0.0177982 7.81571 0.0448056C 7.25914 0.0580984 6.70172 0.0912246 6.14788 0.146716C 5.4762 0.214235 4.80599 0.302853 4.13894 0.405186C 3.39326 0.51849 2.67477 0.729275 1.98601 1.04577C 1.39908 1.31584 0.983753 1.73129 0.742992 2.33411C 0.38185 3.23738 0.208553 4.18179 0.118742 5.14224C 0.0616087 5.75287 0.0192331 6.36602 0.00616205 6.97854C -0.00964975 7.72356 0.00890276 8.46943 0.0179682 9.2153C 0.0280877 10.0681 0.100611 10.9166 0.235328 11.7595C 0.345167 12.4444 0.510875 13.1149 0.786421 13.7544C 0.996402 14.2425 1.32444 14.6195 1.80533 14.8497C 2.07392 14.9782 2.34568 15.1059 2.62586 15.2063C 3.62917 15.5667 4.67907 15.6952 5.73109 15.8043C 6.28049 15.861 6.83306 15.9022 7.38479 15.9258C 8.20426 15.9615 9.02479 15.9758 9.84489 15.9994C 9.87525 16.0005 9.9054 15.9948 9.94693 15.9902C 9.93133 15.9524 9.92269 15.9222 9.90751 15.8956C 9.60455 15.3713 9.29738 14.8493 8.99949 14.322C 8.82008 14.0053 8.54727 13.8692 8.1952 13.853C 7.80559 13.8353 7.41557 13.8201 7.02765 13.7827C 6.22294 13.7298 5.61113 13.6812 4.74021 13.5392C 4.26839 13.4821 3.81659 13.3487 3.3922 13.1217C 3.01926 12.9229 2.761 12.6376 2.6111 12.241C 2.39606 11.6711 2.26957 11.0788 2.21876 10.4768C 2.15361 9.70312 2.11187 8.92624 2.09817 8.15062C 2.08215 7.23068 2.11503 6.30989 2.23267 5.39481C 2.30541 4.82913 2.4123 4.27231 2.61785 3.73786C 3.00872 2.89873 3.76705 2.67634 4.07021 2.60439C 4.62489 2.47252 5.19243 2.38559 5.75891 2.31427C 6.28724 2.24823 6.8202 2.21595 7.35232 2.18662C 8.07186 2.14695 8.79183 2.11404 9.51221 2.09737C 10.014 2.08534 10.5166 2.09526 11.0181 2.1153C 11.8094 2.14611 12.6016 2.17565 13.3907 2.23895C 14.0911 2.29528 14.7893 2.38686 15.4861 2.48054C 16.816 2.64743 17.2465 3.21628 17.3989 3.62645C 17.5117 3.93556 17.615 4.251 17.6892 4.57087C 17.8579 5.30007 17.8944 6.04615 17.9005 6.79012C 17.9104 7.98583 17.9424 9.18239 17.8395 10.377C 17.7925 10.9174 17.7012 11.447 17.5541 11.9707C 17.3863 12.5672 17.0401 12.9866 16.4639 13.2301C 16.0929 13.3867 15.7109 13.4873 15.317 13.5397C 14.6274 13.6584 13.2761 13.8017 11.8734 13.8511C 11.4649 13.8694 11.1602 14.0237 10.958 14.3914C 10.6852 14.8871 10.3945 15.373 10.112 15.8633C 10.0907 15.898 10.073 15.9368 10.0416 15.9994Z" fill="#3BBBE9"/>
</g>
</svg>
