<svg width="18" height="16" viewBox="0 0 18 16" fill="none" xmlns="http://www.w3.org/2000/svg">
<path d="M16.1367 8.59375C16.1602 8.6875 16.1719 8.83984 16.1719 9.05078C16.1719 10.7383 15.7617 12.3672 14.9414 13.9375C14.0977 15.6016 12.9141 16.9258 11.3906 17.9102C9.72656 19.0117 7.81641 19.5625 5.66016 19.5625C3.59766 19.5625 1.71094 19.0117 0 17.9102C0.257812 17.9336 0.550781 17.9453 0.878906 17.9453C2.58984 17.9453 4.125 17.418 5.48438 16.3633C4.66406 16.3633 3.9375 16.1289 3.30469 15.6602C2.69531 15.168 2.27344 14.5586 2.03906 13.832C2.27344 13.8555 2.49609 13.8672 2.70703 13.8672C3.03516 13.8672 3.36328 13.832 3.69141 13.7617C2.84766 13.5742 2.14453 13.1406 1.58203 12.4609C1.01953 11.7812 0.738281 11.0078 0.738281 10.1406V10.0703C1.25391 10.375 1.80469 10.5391 2.39062 10.5625C1.89844 10.2109 1.5 9.76562 1.19531 9.22656C0.890625 8.6875 0.738281 8.10156 0.738281 7.46875C0.738281 6.8125 0.914062 6.19141 1.26562 5.60547C2.17969 6.75391 3.29297 7.66797 4.60547 8.34766C5.94141 9.02734 7.35938 9.40234 8.85938 9.47266C8.8125 9.19141 8.78906 8.91016 8.78906 8.62891C8.78906 7.97266 8.95312 7.36328 9.28125 6.80078C9.60938 6.21484 10.0547 5.75781 10.6172 5.42969C11.1797 5.10156 11.7891 4.9375 12.4453 4.9375C12.9844 4.9375 13.4766 5.04297 13.9219 5.25391C14.3906 5.46484 14.8008 5.74609 15.1523 6.09766C15.9961 5.93359 16.7812 5.64062 17.5078 5.21875C17.2266 6.08594 16.6875 6.76562 15.8906 7.25781C16.5938 7.16406 17.2969 6.96484 18 6.66016C17.4844 7.41016 16.8633 8.05469 16.1367 8.59375Z" transform="translate(0 -4)" fill="white"/>
</svg>
