<svg width="19" height="12" viewBox="0 0 19 12" fill="none" xmlns="http://www.w3.org/2000/svg">
<path d="M19.5352 7.39844C19.6758 6.88281 19.4648 6.625 18.9023 6.625H16.8281C16.4062 6.625 16.1133 6.82422 15.9492 7.22266L15.5977 7.92578C15.3164 8.53516 15.0234 9.09766 14.7188 9.61328C14.2734 10.3398 13.8281 10.9492 13.3828 11.4414C13.1484 11.6992 12.9609 11.875 12.8203 11.9688C12.6797 12.0391 12.5508 12.0742 12.4336 12.0742C12.3398 12.0742 12.2578 12.0273 12.1875 11.9336C12.1172 11.8398 12.082 11.6875 12.082 11.4766V7.39844C12.082 7.11719 12.0352 6.91797 11.9414 6.80078C11.8711 6.68359 11.7305 6.625 11.5195 6.625H8.25C8.10938 6.625 7.98047 6.67187 7.86328 6.76562C7.76953 6.85938 7.72266 6.97656 7.72266 7.11719C7.72266 7.23437 7.80469 7.39844 7.96875 7.60938C8.13281 7.79687 8.25 7.97266 8.32031 8.13672C8.46094 8.41797 8.54297 8.74609 8.56641 9.12109V12.1797C8.56641 12.4844 8.53125 12.6953 8.46094 12.8125C8.41406 12.9062 8.32031 12.9531 8.17969 12.9531C7.94531 12.9531 7.61719 12.6953 7.19531 12.1797C6.77344 11.6641 6.35156 10.9961 5.92969 10.1758C5.46094 9.28516 5.0625 8.37109 4.73438 7.43359C4.64062 7.12891 4.52344 6.91797 4.38281 6.80078C4.26562 6.68359 4.07812 6.625 3.82031 6.625H1.74609C1.27734 6.625 1.04297 6.82422 1.04297 7.22266C1.04297 7.45703 1.125 7.86719 1.28906 8.45312C1.54688 9.17969 1.88672 9.96484 2.30859 10.8086C2.84766 11.9102 3.51562 13 4.3125 14.0781C5.15625 15.2969 6.14062 16.2344 7.26562 16.8906C8.39062 17.5469 9.50391 17.875 10.6055 17.875C11.2383 17.875 11.6602 17.8047 11.8711 17.6641C12.0352 17.5469 12.1055 17.3477 12.082 17.0664V16.1523C12.082 15.5898 12.0938 15.2266 12.1172 15.0625C12.1172 14.8281 12.1523 14.6758 12.2227 14.6055C12.3164 14.5352 12.457 14.5 12.6445 14.5C13.0898 14.5 13.7812 14.9453 14.7188 15.8359C15 16.1172 15.3164 16.4688 15.668 16.8906C16.043 17.2891 16.3008 17.5352 16.4414 17.6289C16.6523 17.793 16.8867 17.875 17.1445 17.875H19.2188C19.5 17.875 19.6992 17.8047 19.8164 17.6641C19.957 17.5 19.9922 17.2773 19.9219 16.9961C19.7109 16.3398 18.7617 15.1445 17.0742 13.4102L16.7578 13.0586C16.6172 12.8945 16.5469 12.7539 16.5469 12.6367C16.5469 12.5195 16.6172 12.3555 16.7578 12.1445C16.7812 12.1211 17.0039 11.8047 17.4258 11.1953C17.918 10.4219 18.3398 9.74219 18.6914 9.15625C19.1836 8.33594 19.4648 7.75 19.5352 7.39844Z" transform="translate(-1 -6)" fill="white"/>
</svg>
